<?xml version="1.0" standalone="no"?>
<!DOCTYPE svg PUBLIC "-//W3C//DTD SVG 1.1//EN" "http://www.w3.org/Graphics/SVG/1.1/DTD/svg11.dtd" >
<svg xmlns="http://www.w3.org/2000/svg" width="100%" height="100%">
<metadata>
Created by FontXChange 20110211 at Tue Jul  7 18:54:16 2015
 By U-JOHNMORRISO8ACF\Administrator,S-1-5-21-343818398-1958367476-839522115-500
This font is compatible with Microsoft Windows XP and upper/Macintosh OSX and upper, and work very well with Microsoft Office 2000 and upper/Adobe CS and upper. "PSL" is abbreviation of PSL SmartLetter. "PSL SmartLetter" is a pseudonym of Phanlop Thongsuk. And "PSL SmartLetter" is a trademark of the Phanlop Thongsuk.
</metadata>
<defs>
<font id="PSLKandaNewW3Pro" horiz-adv-x="0" >
  <font-face 
    font-family="PSL Kanda New W3 Pro"
    font-weight="400"
    font-stretch="normal"
    units-per-em="1000"
    panose-1="2 0 5 6 0 0 0 2 0 4"
    ascent="800"
    descent="-200"
    x-height="339"
    cap-height="471"
    bbox="-401 -298 742 781"
    underline-thickness="40"
    underline-position="-40"
    stemh="51"
    stemv="56"
    unicode-range="U+0020-F880"
  />
<missing-glyph horiz-adv-x="781" 
d="M49 0v781h683v-781h-683zM684 49v683h-586v-683h586z" />
    <glyph glyph-name=".notdef" horiz-adv-x="781" 
d="M49 0v781h683v-781h-683zM684 49v683h-586v-683h586z" />
    <glyph glyph-name=".null" 
 />
    <glyph glyph-name="CR" horiz-adv-x="250" 
 />
    <glyph glyph-name="space" unicode=" " horiz-adv-x="235" 
 />
    <glyph glyph-name="space" unicode="&#xa0;" horiz-adv-x="235" 
 />
    <glyph glyph-name="percent" unicode="%" horiz-adv-x="577" 
d="M552 121c0 -70 -52 -121 -118 -121c-67 0 -117 51 -117 121s50 120 117 120c66 0 118 -50 118 -120zM471 473l-301 -479h-62l302 479h61zM261 345c0 -70 -51 -121 -119 -121c-67 0 -117 51 -117 121s50 120 117 120c68 0 119 -50 119 -120zM495 121c0 37 -27 66 -61 66
c-35 0 -61 -29 -61 -66c0 -36 26 -66 61 -66c34 0 61 30 61 66zM204 345c0 36 -27 65 -62 65c-34 0 -60 -29 -60 -65s26 -66 60 -66c35 0 62 30 62 66z" />
    <glyph glyph-name="ampersand" unicode="&#x26;" horiz-adv-x="429" 
d="M440 0h-75l-48 58c-27 -38 -69 -69 -140 -69c-90 0 -152 54 -152 132c0 56 25 101 114 153c-22 26 -56 61 -56 108c0 60 51 99 115 99c68 0 116 -38 116 -104c0 -54 -45 -83 -90 -116l81 -96c4 14 6 31 6 56h58c-1 -42 -8 -78 -22 -107zM255 379c0 28 -28 49 -57 49
s-57 -16 -57 -45s34 -62 48 -78c20 9 66 38 66 74zM280 105l-105 127c-52 -32 -91 -61 -91 -111c0 -52 49 -78 96 -78s80 26 100 62z" />
    <glyph glyph-name="quotesingle" unicode="'" horiz-adv-x="136" 
d="M96 320h-56v151h56v-151z" />
    <glyph glyph-name="parenleft" unicode="(" horiz-adv-x="198" 
d="M187 -99h-48c-61 78 -99 183 -99 300s38 222 98 299h49c-71 -106 -90 -202 -90 -299c0 -98 19 -194 90 -300z" />
    <glyph glyph-name="parenright" unicode=")" horiz-adv-x="198" 
d="M159 201c0 -117 -38 -222 -99 -300h-48c71 106 90 202 90 300c0 97 -19 193 -90 299h49c60 -77 98 -182 98 -299z" />
    <glyph glyph-name="asterisk" unicode="*" horiz-adv-x="255" 
d="M235 373l-68 -19l46 -54l-45 -33l-40 60l-39 -60l-45 32l43 55l-67 19l17 54l66 -26l-4 70h56l-4 -70l67 26z" />
    <glyph glyph-name="plus" unicode="+" horiz-adv-x="386" 
d="M356 141h-136v-136h-54v136h-136v54h136v136h54v-136h136v-54z" />
    <glyph glyph-name="comma" unicode="," horiz-adv-x="162" 
d="M125 27c0 -42 -36 -82 -69 -100l-21 19c27 16 41 34 49 50h-6c-22 0 -39 16 -39 40c0 22 17 41 40 41c27 0 46 -18 46 -50z" />
    <glyph glyph-name="hyphen" unicode="-" horiz-adv-x="222" 
d="M187 157h-152v48h152v-48z" />
    <glyph glyph-name="period" unicode="." horiz-adv-x="162" 
d="M122 36c0 -22 -19 -41 -41 -41s-41 19 -41 41s19 41 41 41s41 -19 41 -41z" />
    <glyph glyph-name="slash" unicode="/" horiz-adv-x="259" 
d="M260 481l-205 -491h-58l205 491h58z" />
    <glyph glyph-name="zero" unicode="0" horiz-adv-x="386" 
d="M368 237c0 -148 -59 -244 -176 -244s-174 96 -174 244c0 147 57 244 174 244s176 -97 176 -244zM311 237c0 120 -41 193 -119 193c-77 0 -118 -73 -118 -193s41 -193 118 -193c78 0 119 73 119 193z" />
    <glyph glyph-name="one" unicode="1" horiz-adv-x="386" 
d="M243 0h-56v352h-109v50c88 0 111 10 111 53v18h54v-473z" />
    <glyph glyph-name="two" unicode="2" horiz-adv-x="386" 
d="M358 0h-330c-14 141 107 185 171 223c54 32 94 65 94 123c0 46 -33 82 -94 82c-100 0 -105 -85 -102 -124h-57c-9 61 12 177 158 177c93 0 154 -52 154 -131c0 -82 -44 -128 -109 -165s-146 -75 -151 -132h266v-53z" />
    <glyph glyph-name="three" unicode="3" horiz-adv-x="386" 
d="M359 139c0 -86 -64 -146 -164 -146c-96 0 -179 49 -174 166h57c-3 -80 50 -113 117 -113c55 0 106 35 106 92s-41 91 -139 88v52c85 -4 129 23 129 78c0 39 -34 72 -94 72c-74 0 -109 -42 -108 -106h-57c-5 90 51 159 164 159c94 0 154 -51 154 -127
c0 -48 -26 -85 -77 -101c62 -17 86 -62 86 -114z" />
    <glyph glyph-name="four" unicode="4" horiz-adv-x="386" 
d="M365 113h-74v-113h-56v113h-217v46l222 314h51v-307h74v-53zM235 166v209l-147 -209h147z" />
    <glyph glyph-name="five" unicode="5" horiz-adv-x="386" 
d="M359 160c0 -100 -67 -167 -165 -167c-96 0 -169 56 -168 154h58c1 -68 52 -101 109 -101c62 0 107 47 107 115c0 61 -39 111 -113 111c-48 0 -86 -26 -102 -55h-52l47 254h257v-53h-212l-20 -119c21 15 56 27 92 27c102 0 162 -69 162 -166z" />
    <glyph glyph-name="six" unicode="6" horiz-adv-x="386" 
d="M363 154c0 -89 -69 -161 -164 -161c-91 0 -173 54 -173 223c0 132 45 265 178 265c97 0 145 -57 152 -138h-57c-5 49 -33 85 -93 85c-79 0 -113 -85 -117 -150c27 28 68 44 115 44c97 0 159 -68 159 -168zM305 158c0 59 -37 111 -106 111c-59 0 -107 -43 -107 -106
c0 -57 35 -117 105 -117c62 0 108 50 108 112z" />
    <glyph glyph-name="seven" unicode="7" horiz-adv-x="386" 
d="M352 425c-90 -84 -184 -235 -190 -425h-60c6 140 54 287 174 418h-239v53h315v-46z" />
    <glyph glyph-name="eight" unicode="8" horiz-adv-x="386" 
d="M362 141c0 -92 -65 -148 -168 -148c-92 0 -169 48 -169 148c0 63 42 106 88 118c-39 12 -70 47 -70 97c0 76 60 125 149 125c92 0 153 -50 153 -125c0 -48 -31 -86 -70 -97c56 -18 87 -62 87 -118zM287 356c0 40 -32 72 -95 72c-62 0 -92 -31 -92 -72
c0 -43 32 -73 91 -73c64 0 96 30 96 73zM303 139c0 50 -34 90 -111 90c-76 0 -108 -39 -108 -89c0 -55 39 -94 110 -94s109 40 109 93z" />
    <glyph glyph-name="nine" unicode="9" horiz-adv-x="386" 
d="M360 256c0 -132 -45 -263 -178 -263c-96 0 -143 57 -152 147h57c5 -56 32 -94 93 -94c79 0 109 81 117 148c-27 -28 -68 -46 -115 -46c-97 0 -159 70 -159 170c0 89 69 160 164 160c91 0 173 -53 173 -222zM294 309c0 57 -35 115 -106 115c-61 0 -106 -48 -106 -110
c0 -59 35 -112 105 -112c58 0 107 44 107 107z" />
    <glyph glyph-name="colon" unicode=":" horiz-adv-x="162" 
d="M122 286c0 -22 -19 -41 -41 -41s-41 19 -41 41s19 41 41 41s41 -19 41 -41zM122 36c0 -22 -19 -41 -41 -41s-41 19 -41 41s19 41 41 41s41 -19 41 -41z" />
    <glyph glyph-name="semicolon" unicode=";" horiz-adv-x="162" 
d="M122 286c0 -22 -19 -41 -41 -41s-41 19 -41 41s19 41 41 41s41 -19 41 -41zM125 27c0 -42 -36 -82 -69 -100l-21 19c27 16 41 34 49 50h-6c-22 0 -39 16 -39 40c0 22 17 41 40 41c27 0 46 -18 46 -50z" />
    <glyph glyph-name="less" unicode="&#x3c;" horiz-adv-x="386" 
d="M356 -13l-326 157v55l326 158v-63l-254 -123l254 -122v-62z" />
    <glyph glyph-name="equal" unicode="=" horiz-adv-x="386" 
d="M356 198h-326v54h326v-54zM356 84h-326v54h326v-54z" />
    <glyph glyph-name="greater" unicode="&#x3e;" horiz-adv-x="386" 
d="M356 144l-326 -157v62l254 122l-254 123v63l326 -158v-55z" />
    <glyph glyph-name="question" unicode="?" horiz-adv-x="340" 
d="M312 349c0 -115 -113 -119 -113 -189v-33h-58v38c0 93 113 94 113 182c0 47 -32 79 -85 79c-72 0 -94 -52 -86 -114h-58c-11 106 44 169 145 169c84 0 142 -46 142 -132zM211 36c0 -22 -19 -41 -41 -41s-41 19 -41 41s19 41 41 41s41 -19 41 -41z" />
    <glyph glyph-name="at" unicode="@" horiz-adv-x="525" 
d="M498 283c0 -129 -94 -190 -151 -190c-19 0 -40 12 -42 38c-24 -27 -55 -37 -81 -37c-55 0 -96 47 -96 102c0 81 58 170 145 170c40 0 70 -24 78 -53l14 42h38l-54 -187c-6 -24 -2 -35 18 -35c44 0 92 65 92 147c0 103 -83 165 -185 165c-116 0 -207 -88 -207 -203
c0 -142 104 -219 212 -219c64 0 113 26 150 67h43c-45 -65 -114 -101 -195 -101c-126 0 -249 84 -249 254c0 134 113 237 246 237c126 0 224 -84 224 -197zM327 253c4 38 -14 70 -51 70c-58 0 -99 -69 -99 -121c0 -38 23 -65 60 -65c48 0 85 67 90 116z" />
    <glyph glyph-name="A" unicode="A" horiz-adv-x="394" 
d="M404 0h-63l-51 142h-186l-51 -142h-63l179 471h56zM272 193l-75 208l-75 -208h150z" />
    <glyph glyph-name="B" unicode="B" horiz-adv-x="414" 
d="M391 140c0 -97 -80 -140 -149 -140h-201v471h185c95 0 150 -47 150 -124c0 -42 -21 -78 -64 -98c44 -16 79 -59 79 -109zM317 347c0 52 -43 73 -89 73h-129v-150h128c44 0 90 23 90 77zM332 140c0 50 -40 79 -107 79h-126v-168h126c63 0 107 31 107 89z" />
    <glyph glyph-name="C" unicode="C" horiz-adv-x="457" 
d="M434 200c-3 -122 -78 -211 -199 -211c-124 0 -213 95 -213 246c0 150 93 246 215 246c114 0 181 -75 193 -170h-59c-13 72 -63 118 -134 118c-91 0 -156 -79 -156 -194c0 -118 62 -194 154 -194c76 0 134 57 140 159h59z" />
    <glyph glyph-name="D" unicode="D" horiz-adv-x="435" 
d="M407 243c0 -151 -69 -243 -214 -243h-152v471h157c118 0 209 -72 209 -228zM351 243c0 124 -67 177 -162 177h-90v-369h98c104 0 154 72 154 192z" />
    <glyph glyph-name="E" unicode="E" horiz-adv-x="376" 
d="M361 0h-320v471h317v-51h-259v-150h243v-51h-243v-168h262v-51z" />
    <glyph glyph-name="F" unicode="F" horiz-adv-x="348" 
d="M338 420h-239v-150h216v-51h-216v-219h-58v471h297v-51z" />
    <glyph glyph-name="G" unicode="G" horiz-adv-x="477" 
d="M440 0h-55v64c-30 -43 -81 -75 -152 -75c-134 0 -211 108 -211 246c0 130 75 246 215 246c141 0 186 -106 193 -170h-59c-14 74 -60 118 -137 118c-99 0 -153 -94 -153 -194c0 -114 61 -194 154 -194c81 0 143 52 150 149h-157v54h212v-244z" />
    <glyph glyph-name="H" unicode="H" horiz-adv-x="437" 
d="M397 0h-58v219h-240v-219h-58v471h58v-201h240v201h58v-471z" />
    <glyph glyph-name="I" unicode="I" horiz-adv-x="139" 
d="M99 0h-58v471h58v-471z" />
    <glyph glyph-name="J" unicode="J" horiz-adv-x="324" 
d="M284 135c0 -92 -42 -146 -138 -146c-101 0 -141 71 -129 172h59c-6 -70 9 -120 71 -120c59 0 78 35 78 94v336h59v-336z" />
    <glyph glyph-name="K" unicode="K" horiz-adv-x="403" 
d="M414 0h-68l-175 232l-72 -74v-158h-58v471h58v-239l233 239h72l-195 -201z" />
    <glyph glyph-name="L" unicode="L" horiz-adv-x="339" 
d="M339 0h-298v471h58v-420h240v-51z" />
    <glyph glyph-name="M" unicode="M" horiz-adv-x="519" 
d="M478 0h-57v346l-137 -346h-49l-136 340v-340h-58v471h63l156 -388l154 388h64v-471z" />
    <glyph glyph-name="N" unicode="N" horiz-adv-x="440" 
d="M402 0h-59l-244 372v-372h-58v471h58l244 -372v372h59v-471z" />
    <glyph glyph-name="O" unicode="O" horiz-adv-x="482" 
d="M460 235c0 -151 -99 -246 -220 -246c-120 0 -218 94 -218 246c0 150 98 246 218 246c121 0 220 -96 220 -246zM402 235c0 116 -72 194 -162 194c-89 0 -159 -78 -159 -194c0 -117 70 -194 159 -194c90 0 162 77 162 194z" />
    <glyph glyph-name="P" unicode="P" horiz-adv-x="390" 
d="M377 333c0 -83 -47 -139 -148 -139h-130v-194h-58v471h190c101 0 146 -62 146 -138zM318 332c0 46 -24 88 -90 88h-129v-175h127c64 0 92 39 92 87z" />
    <glyph glyph-name="Q" unicode="Q" horiz-adv-x="482" 
d="M469 17l-35 -44l-72 53c-35 -24 -77 -37 -122 -37c-120 0 -218 94 -218 246c0 150 98 246 218 246c121 0 220 -96 220 -246c0 -70 -21 -128 -56 -170zM402 235c0 116 -72 194 -162 194c-89 0 -159 -78 -159 -194c0 -117 70 -194 159 -194c27 0 52 7 75 20l-63 46l34 43
l72 -52c27 34 44 81 44 137z" />
    <glyph glyph-name="R" unicode="R" horiz-adv-x="414" 
d="M412 0h-73c-21 23 -23 76 -20 115c2 53 -21 87 -86 87h-134v-202h-58v471h194c98 0 148 -48 148 -135c0 -56 -37 -94 -71 -108c59 -25 67 -76 65 -135c0 -31 5 -61 35 -93zM325 336c0 61 -38 84 -105 84h-121v-167h129c56 0 97 29 97 83z" />
    <glyph glyph-name="S" unicode="S" horiz-adv-x="414" 
d="M386 126c0 -78 -67 -137 -176 -137c-139 0 -189 83 -184 177h57c-1 -78 43 -125 129 -125c55 0 115 27 115 85s-42 75 -136 90c-73 12 -153 38 -153 133c0 68 58 132 161 132c109 0 179 -60 176 -157h-57c-2 68 -42 105 -119 105c-54 0 -102 -32 -102 -81
c0 -53 47 -69 107 -79c118 -19 182 -48 182 -143z" />
    <glyph glyph-name="T" unicode="T" horiz-adv-x="340" 
d="M347 420h-148v-420h-58v420h-148v51h354v-51z" />
    <glyph glyph-name="U" unicode="U" horiz-adv-x="439" 
d="M399 188c0 -120 -56 -199 -180 -199s-178 79 -178 199v283h58v-285c0 -95 41 -145 120 -145c80 0 122 50 122 145v285h58v-283z" />
    <glyph glyph-name="V" unicode="V" horiz-adv-x="379" 
d="M386 471l-168 -471h-57l-168 471h61l136 -385l137 385h59z" />
    <glyph glyph-name="W" unicode="W" horiz-adv-x="565" 
d="M572 471l-132 -471h-52l-106 377l-104 -377h-53l-131 471h59l99 -367l102 367h56l104 -366l98 366h60z" />
    <glyph glyph-name="X" unicode="X" horiz-adv-x="381" 
d="M391 0h-68l-132 194l-133 -194h-68l167 244l-155 227h68l120 -177l121 177h68l-155 -227z" />
    <glyph glyph-name="Y" unicode="Y" horiz-adv-x="373" 
d="M383 471l-168 -275v-196h-58v195l-167 276h64l132 -220l133 220h64z" />
    <glyph glyph-name="Z" unicode="Z" horiz-adv-x="367" 
d="M357 0h-347v49l269 371h-257v51h327v-49l-269 -371h277v-51z" />
    <glyph glyph-name="bracketleft" unicode="[" horiz-adv-x="205" 
d="M185 -98h-115v596h115v-50h-61v-496h61v-50z" />
    <glyph glyph-name="backslash" unicode="\" horiz-adv-x="259" 
d="M261 -10h-58l-205 491h58z" />
    <glyph glyph-name="bracketright" unicode="]" horiz-adv-x="205" 
d="M135 -98h-115v50h61v496h-61v50h115v-596z" />
    <glyph glyph-name="asciicircum" unicode="^" horiz-adv-x="386" 
d="M362 150h-62l-106 231l-108 -231h-62l142 303h55z" />
    <glyph glyph-name="underscore" unicode="_" horiz-adv-x="386" 
d="M386 -100h-386v50h386v-50z" />
    <glyph glyph-name="grave" unicode="`" horiz-adv-x="241" 
d="M204 360h-58l-113 119h76z" />
    <glyph glyph-name="a" unicode="a" horiz-adv-x="335" 
d="M325 0c-49 -9 -76 7 -83 42c-24 -26 -58 -49 -105 -49c-62 0 -116 32 -116 107c0 70 46 99 114 104c41 3 103 -1 103 34v10c0 38 -34 52 -73 52c-47 0 -73 -25 -75 -65h-53c0 71 54 112 130 112c71 0 125 -30 125 -92v-188c0 -13 8 -25 33 -19v-48zM238 142v29
c-26 -11 -69 -12 -97 -15c-43 -4 -66 -21 -66 -56c0 -38 26 -60 66 -60c59 0 97 52 97 102z" />
    <glyph glyph-name="b" unicode="b" horiz-adv-x="369" 
d="M346 181c0 -123 -62 -188 -150 -188c-42 0 -81 22 -100 50v-43h-54v471h54v-168c23 27 59 44 99 44c102 0 151 -77 151 -166zM292 175c0 62 -27 124 -100 124c-65 0 -95 -60 -95 -118c0 -78 30 -140 95 -140c78 0 100 77 100 134z" />
    <glyph glyph-name="c" unicode="c" horiz-adv-x="347" 
d="M325 130c-10 -80 -59 -137 -148 -137c-97 0 -155 76 -155 182c0 92 52 172 155 172c94 0 141 -57 147 -128h-54c-7 42 -32 80 -92 80c-67 0 -101 -56 -101 -124c0 -75 35 -134 100 -134c57 0 87 40 94 89h54z" />
    <glyph glyph-name="d" unicode="d" horiz-adv-x="369" 
d="M328 0h-54v43c-19 -28 -58 -50 -100 -50c-88 0 -150 65 -150 188c0 89 49 166 151 166c40 0 76 -17 99 -44v168h54v-471zM273 181c0 58 -30 118 -95 118c-73 0 -100 -62 -100 -124c0 -57 22 -134 100 -134c65 0 95 62 95 140z" />
    <glyph glyph-name="e" unicode="e" horiz-adv-x="347" 
d="M322 155h-244c2 -63 40 -114 96 -114c58 0 87 40 92 87h54c-9 -79 -59 -135 -146 -135c-103 0 -152 87 -152 180c0 95 51 174 152 174c125 0 159 -105 148 -192zM268 205c-3 46 -29 94 -93 94c-58 0 -90 -49 -95 -94h188z" />
    <glyph glyph-name="f" unicode="f" horiz-adv-x="181" 
d="M184 417c-24 7 -33 9 -46 9c-16 0 -26 -6 -26 -26v-61h64v-47h-64v-292h-54v292h-56v47h56v64c0 51 32 74 77 74c28 0 49 -7 49 -7v-53z" />
    <glyph glyph-name="g" unicode="g" horiz-adv-x="357" 
d="M321 32c0 -111 -54 -161 -153 -161s-130 56 -133 100h56c5 -30 26 -50 77 -50c65 0 98 36 98 107v18c-18 -28 -55 -53 -98 -53c-103 0 -146 86 -146 179c0 96 55 175 146 175c39 0 75 -16 98 -47v39h55v-307zM266 176c0 59 -24 123 -96 123c-62 0 -93 -67 -93 -127
c0 -68 26 -131 91 -131c62 0 98 59 98 135z" />
    <glyph glyph-name="h" unicode="h" horiz-adv-x="347" 
d="M311 0h-56v208c0 58 -19 91 -66 91c-63 0 -98 -55 -98 -112v-187h-55v471h55v-174c24 33 64 50 100 50c73 0 120 -42 120 -136v-211z" />
    <glyph glyph-name="i" unicode="i" horiz-adv-x="138" 
d="M96 389h-54v82h54v-82zM96 0h-54v339h54v-339z" />
    <glyph glyph-name="j" unicode="j" horiz-adv-x="138" 
d="M96 389h-54v82h54v-82zM96 -15c0 -78 -34 -101 -114 -92v49c41 -3 60 -1 60 42v355h54v-354z" />
    <glyph glyph-name="k" unicode="k" horiz-adv-x="314" 
d="M324 0h-66l-127 168l-39 -39v-129h-55v471h55v-272c0 -1 150 140 150 140h72l-146 -136z" />
    <glyph glyph-name="l" unicode="l" horiz-adv-x="138" 
d="M96 0h-54v471h54v-471z" />
    <glyph glyph-name="m" unicode="m" horiz-adv-x="515" 
d="M480 0h-55v228c0 38 -17 69 -59 69c-46 0 -81 -36 -81 -97v-200h-54v221c0 36 -13 76 -60 76c-49 0 -79 -50 -79 -89v-208h-55v339h55v-35c16 25 55 43 87 43c45 0 73 -19 86 -51c21 29 58 51 101 51c80 0 114 -52 114 -117v-230z" />
    <glyph glyph-name="n" unicode="n" horiz-adv-x="347" 
d="M311 0h-56v215c0 42 -18 82 -69 82c-66 0 -95 -57 -95 -106v-191h-55v339h55v-38c22 25 58 46 98 46c89 0 122 -57 122 -132v-215z" />
    <glyph glyph-name="o" unicode="o" horiz-adv-x="357" 
d="M335 170c0 -110 -65 -177 -157 -177s-157 68 -157 177c0 110 66 177 157 177c92 0 157 -66 157 -177zM281 170c0 77 -43 129 -103 129c-61 0 -103 -52 -103 -129s42 -129 103 -129c60 0 103 52 103 129z" />
    <glyph glyph-name="p" unicode="p" horiz-adv-x="369" 
d="M346 167c0 -90 -50 -174 -154 -174c-36 0 -73 15 -96 43v-156h-54v459h54v-41c26 31 61 49 99 49c95 0 151 -68 151 -180zM292 168c0 56 -20 131 -100 131c-65 0 -96 -55 -96 -135c0 -58 27 -123 96 -123c71 0 100 68 100 127z" />
    <glyph glyph-name="q" unicode="q" horiz-adv-x="369" 
d="M328 -120h-54v156c-23 -28 -63 -43 -99 -43c-104 0 -151 84 -151 174c0 112 60 180 151 180c43 0 83 -21 99 -49v41h54v-459zM274 164c0 80 -31 135 -96 135c-80 0 -100 -75 -100 -131c0 -59 29 -127 100 -127c69 0 96 65 96 123z" />
    <glyph glyph-name="r" unicode="r" horiz-adv-x="214" 
d="M214 289c-81 5 -119 -49 -119 -107v-182h-54v339h54v-51c21 33 59 59 119 56v-55z" />
    <glyph glyph-name="s" unicode="s" horiz-adv-x="324" 
d="M300 97c0 -69 -57 -104 -136 -104c-88 0 -142 48 -140 123h54c0 -46 33 -75 86 -75c37 0 81 13 81 56c0 33 -32 44 -93 55c-63 11 -117 28 -117 98c0 57 42 97 123 97c92 0 133 -47 131 -112h-54c-1 48 -31 64 -78 64c-41 0 -67 -20 -67 -49c0 -31 32 -38 69 -45
c83 -16 141 -30 141 -108z" />
    <glyph glyph-name="t" unicode="t" horiz-adv-x="190" 
d="M180 292h-67v-208c0 -33 19 -40 66 -34v-50c-78 -6 -120 10 -120 81v211h-58v47h58v101h54v-101h67v-47z" />
    <glyph glyph-name="u" unicode="u" horiz-adv-x="347" 
d="M311 0h-56v41c-22 -28 -54 -48 -96 -48c-83 0 -123 48 -123 138v208h55v-210c0 -60 26 -88 68 -88c66 0 96 60 96 110v188h56v-339z" />
    <glyph glyph-name="v" unicode="v" horiz-adv-x="302" 
d="M307 339l-131 -339h-50l-131 339h56l100 -261l100 261h56z" />
    <glyph glyph-name="w" unicode="w" horiz-adv-x="458" 
d="M461 339l-106 -339h-51l-75 262l-75 -262h-51l-106 339h54l79 -254l72 254h54l72 -254l79 254h54z" />
    <glyph glyph-name="x" unicode="x" horiz-adv-x="305" 
d="M313 0h-64l-97 132l-96 -132h-64l129 176l-119 163h63l87 -120l88 120h63l-119 -163z" />
    <glyph glyph-name="y" unicode="y" horiz-adv-x="304" 
d="M309 339l-149 -388c-23 -59 -51 -70 -129 -67v51c55 -1 68 5 84 45l15 38l-135 321h56l106 -252l96 252h56z" />
    <glyph glyph-name="z" unicode="z" horiz-adv-x="297" 
d="M282 0h-267v45l187 245h-179v49h250v-43l-188 -247h197v-49z" />
    <glyph glyph-name="braceleft" unicode="{" horiz-adv-x="219" 
d="M199 -98h-36c-48 0 -79 29 -79 90v111c0 42 -11 72 -54 72v50c43 0 54 30 54 72v111c0 61 31 90 79 90h36v-49h-29c-23 0 -31 -15 -31 -45v-113c0 -48 -19 -76 -47 -91c28 -15 47 -43 47 -91v-113c0 -30 8 -45 31 -45h29v-49z" />
    <glyph glyph-name="bar" unicode="|" horiz-adv-x="215" 
d="M135 -9h-55v490h55v-490z" />
    <glyph glyph-name="braceright" unicode="}" horiz-adv-x="219" 
d="M189 175c-43 0 -54 -30 -54 -72v-111c0 -61 -31 -90 -79 -90h-36v49h29c23 0 31 15 31 45v113c0 48 19 76 47 91c-28 15 -47 43 -47 91v113c0 30 -8 45 -31 45h-29v49h36c48 0 79 -29 79 -90v-111c0 -42 11 -72 54 -72v-50z" />
    <glyph glyph-name="asciitilde" unicode="~" horiz-adv-x="402" 
d="M360 184c-26 -35 -55 -59 -97 -59c-48 0 -87 37 -122 37c-25 0 -45 -21 -60 -44l-39 40c25 33 62 58 99 58c53 0 84 -36 123 -36c21 0 40 13 57 44z" />
    <glyph glyph-name="quotedbl" unicode="&#x22;" horiz-adv-x="235" 
d="M195 320h-54v151h54v-151zM96 320h-56v151h56v-151z" />
    <glyph glyph-name="exclam" unicode="!" horiz-adv-x="184" 
d="M124 326l-13 -199h-38l-13 199v145h64v-145zM133 36c0 -22 -19 -41 -41 -41s-41 19 -41 41s19 41 41 41s41 -19 41 -41z" />
    <glyph glyph-name="guillemotleft" unicode="&#xab;" horiz-adv-x="301" 
d="M277 70l-16 -53l-103 165l103 167l16 -54l-49 -112zM202 41l-16 -56l-162 197l161 198l17 -54l-97 -144z" />
    <glyph glyph-name="logicalnot" unicode="&#xac;" horiz-adv-x="362" 
d="M283 58v87h-250v44h290v-131h-40z" />
    <glyph glyph-name="registered" unicode="&#xae;" horiz-adv-x="552" 
d="M522 235c0 -136 -110 -246 -246 -246s-246 110 -246 246s110 246 246 246s246 -110 246 -246zM481 235c0 113 -92 205 -205 205s-205 -92 -205 -205s92 -205 205 -205s205 92 205 205zM408 86h-57c-12 23 -11 50 -10 73c1 28 -15 46 -54 46h-70v-119h-50v298h123
c79 0 106 -38 106 -87c0 -26 -11 -60 -51 -70c41 -12 48 -50 47 -82c-1 -15 2 -40 16 -59zM346 295c0 33 -23 46 -66 46h-63v-93h69c35 0 60 12 60 47z" />
    <glyph glyph-name="degree" unicode="&#xb0;" horiz-adv-x="264" 
d="M130 447c56 0 100 -44 100 -99s-44 -99 -100 -99c-53 0 -98 43 -98 99c0 53 43 99 98 99zM130 419c-41 0 -71 -30 -71 -71c0 -39 32 -72 71 -72c20 0 37 7 51 21c15 15 22 32 22 51c0 39 -33 71 -73 71z" />
    <glyph glyph-name="paragraph" unicode="&#xb6;" horiz-adv-x="355" 
d="M307 -119h-30v662h-71v-662h-27v393c-54 0 -97 10 -128 30c-34 24 -51 63 -51 115c0 50 15 87 46 112c29 21 70 32 121 32h190v-20h-50v-662z" />
    <glyph glyph-name="middot" unicode="&#xb7;" horiz-adv-x="165" 
d="M83 254c20 0 35 -17 35 -35c0 -20 -16 -36 -35 -36c-21 0 -36 15 -36 36c0 20 15 35 36 35z" />
    <glyph glyph-name="middot" unicode="&#x2219;" horiz-adv-x="165" 
d="M83 254c20 0 35 -17 35 -35c0 -20 -16 -36 -35 -36c-21 0 -36 15 -36 36c0 20 15 35 36 35z" />
    <glyph glyph-name="guillemotright" unicode="&#xbb;" horiz-adv-x="301" 
d="M277 182l-162 -197l-16 56l97 141l-97 144l17 54zM143 182l-103 -165l-16 53l49 113l-49 112l16 54z" />
    <glyph glyph-name="multiply" unicode="&#xd7;" horiz-adv-x="386" 
d="M356 44l-39 -39l-124 125l-124 -125l-39 39l125 124l-125 124l39 39l124 -125l124 125l39 -39l-125 -124z" />
    <glyph glyph-name="divide" unicode="&#xf7;" horiz-adv-x="386" 
d="M234 286c0 -22 -19 -41 -41 -41s-41 19 -41 41s19 41 41 41s41 -19 41 -41zM356 141h-326v54h326v-54zM234 50c0 -22 -19 -41 -41 -41s-41 19 -41 41s19 41 41 41s41 -19 41 -41z" />
    <glyph glyph-name="uni0E00" unicode="&#xe00;" horiz-adv-x="100" 
 />
    <glyph glyph-name="uni0E01" unicode="&#xe01;" horiz-adv-x="378" 
d="M343 0h-56v272c0 61 -44 84 -102 84c-53 0 -87 -25 -98 -51c12 -6 37 -23 37 -44c0 -26 -33 -42 -33 -67v-194h-56v198c0 30 35 48 35 61c0 12 -43 33 -43 33c8 74 77 115 159 115c85 0 157 -36 157 -129v-278z" />
    <glyph glyph-name="uni0E02" unicode="&#xe02;" horiz-adv-x="332" 
d="M297 116c0 -96 -71 -123 -132 -123c-60 0 -130 27 -130 123v131c0 58 70 56 70 89c0 11 -13 14 -28 14h-48v50h50c48 0 80 -17 80 -61c0 -59 -68 -55 -68 -99v-123c0 -55 35 -73 74 -73c40 0 76 18 76 73v283h56v-284z" />
    <glyph glyph-name="uni0E03" unicode="&#xe03;" horiz-adv-x="332" 
d="M297 114c0 -93 -69 -121 -132 -121c-61 0 -130 28 -130 121v124c0 59 73 64 73 100c0 7 -6 14 -11 14l-33 -30l-60 67l47 18l22 -27l24 20c39 3 64 -23 64 -59c0 -59 -70 -64 -70 -109v-115c0 -56 35 -73 74 -73c40 0 76 17 76 73v283h56v-286z" />
    <glyph glyph-name="uni0E04" unicode="&#xe04;" horiz-adv-x="378" 
d="M343 0h-56v279c0 54 -50 77 -98 77c-50 0 -98 -23 -98 -77v-47h112v-52h-112v-180h-56v279c0 90 82 128 154 128s154 -38 154 -128v-279z" />
    <glyph glyph-name="uni0E05" unicode="&#xe05;" horiz-adv-x="378" 
d="M343 0h-56v287c0 32 -15 58 -39 68l-59 -54l-61 53c-24 -10 -37 -35 -37 -67v-55h112v-52h-112v-180h-56v291c0 65 39 112 109 118l45 -40l45 40c67 -6 109 -53 109 -118v-291z" />
    <glyph glyph-name="uni0E06" unicode="&#xe06;" horiz-adv-x="378" 
d="M343 122c0 -87 -56 -129 -124 -129c-57 0 -108 34 -128 70v-63h-56v238c0 59 73 64 73 100c0 7 -6 14 -11 14l-33 -30l-60 67l47 18l22 -27l24 20c39 3 64 -23 64 -59c0 -59 -70 -64 -70 -109v-68c0 -47 56 -120 122 -120c43 0 74 25 74 82v274h56v-278z" />
    <glyph glyph-name="uni0E07" unicode="&#xe07;" horiz-adv-x="335" 
d="M314 212c0 -112 -66 -221 -205 -216l-112 317l47 38l106 -301c68 14 109 83 109 162c0 82 -33 142 -137 140v50c133 8 192 -71 192 -190z" />
    <glyph glyph-name="uni0E08" unicode="&#xe08;" horiz-adv-x="348" 
d="M327 224c0 -144 -77 -231 -209 -227l-53 215l-21 34h69l47 -195c66 9 111 80 111 173c0 83 -45 131 -112 131c-51 0 -94 -24 -105 -78h-54c7 80 71 130 159 130c97 0 168 -65 168 -183z" />
    <glyph glyph-name="uni0E09" unicode="&#xe09;" horiz-adv-x="373" 
d="M338 0h-55v65c-25 -35 -66 -71 -125 -71c-66 0 -118 42 -118 129v78l-12 34v3h67v-111c0 -57 28 -82 70 -82c65 0 118 73 118 120v108c0 60 -49 83 -104 83c-51 0 -97 -21 -104 -79h-54c9 99 85 130 158 130c82 0 159 -37 159 -127v-280z" />
    <glyph glyph-name="uni0E0A" unicode="&#xe0a;" horiz-adv-x="356" 
d="M335 159c0 -113 -75 -159 -171 -159h-129v400h56v-348h70c64 0 118 29 118 106c0 58 -41 96 -92 96h-60v52h60c42 0 85 26 79 94h54c9 -54 -18 -104 -60 -120c40 -19 75 -65 75 -121z" />
    <glyph glyph-name="uni0E0B" unicode="&#xe0b;" horiz-adv-x="369" 
d="M348 159c0 -113 -75 -159 -171 -159h-134v238c0 59 63 64 63 100c0 7 -6 14 -11 14l-33 -30l-60 67l47 18l22 -27l24 20c39 3 64 -23 64 -59c0 -59 -60 -64 -60 -109v-180h75c64 0 118 29 118 106c0 58 -41 96 -92 96h-38v52h38c42 0 85 26 79 94h54
c9 -54 -18 -104 -60 -120c40 -19 75 -65 75 -121z" />
    <glyph glyph-name="uni0E0C" unicode="&#xe0c;" horiz-adv-x="594" 
d="M559 119c0 -83 -42 -126 -106 -126c-45 0 -85 25 -110 61v-54h-56v272c0 61 -44 84 -102 84c-53 0 -87 -25 -98 -51c12 -6 37 -23 37 -44c0 -26 -33 -42 -33 -67v-142h56v-52h-112v198c0 30 35 48 35 61c0 12 -43 33 -43 33c8 74 77 115 159 115c85 0 157 -36 157 -129
v-120c0 -45 38 -114 104 -114c36 0 56 24 56 78v278h56v-281z" />
    <glyph glyph-name="uni0E0D" unicode="&#xe0d;" horiz-adv-x="594" 
d="M559 19c0 -88 -63 -122 -139 -122h-133v52h133c53 0 83 23 83 64v26c-20 -26 -50 -45 -97 -45c-56 0 -119 29 -119 118v160c0 61 -44 84 -102 84c-53 0 -87 -25 -98 -51c12 -6 37 -23 37 -44c0 -26 -33 -42 -33 -67v-142h56v-52h-112v198c0 30 35 48 35 61
c0 12 -43 33 -43 33c8 74 77 115 159 115c85 0 157 -36 157 -129v-157c0 -55 30 -76 70 -76c45 0 90 33 90 91v264h56v-381z" />
    <glyph glyph-name="uni0E0E" unicode="&#xe0e;" horiz-adv-x="383" 
d="M348 -138h-52l-58 60l-62 -60h-111v52h94l80 71l53 -53v340c0 61 -44 84 -102 84c-53 0 -87 -25 -98 -51c12 -6 37 -23 37 -44c0 -26 -33 -42 -33 -67v-194h-91v52h35v146c0 30 35 48 35 61c0 12 -43 33 -43 33c8 74 77 115 159 115c85 0 157 -36 157 -129v-416z" />
    <glyph glyph-name="uni0E0F" unicode="&#xe0f;" horiz-adv-x="383" 
d="M348 -138h-52l-48 49l-48 -59l-56 60l-42 -50h-75v52h57l61 64l55 -56l49 56l43 -44v338c0 61 -44 84 -102 84c-53 0 -87 -25 -98 -51c12 -6 37 -23 37 -44c0 -26 -33 -42 -33 -67v-194h-91v52h35v146c0 30 35 48 35 61c0 12 -43 33 -43 33c8 74 77 115 159 115
c85 0 157 -36 157 -129v-416z" />
    <glyph glyph-name="uni0E10" unicode="&#xe10;" horiz-adv-x="348" 
d="M327 224c0 -144 -77 -231 -209 -227l-53 215l-21 34h69l47 -195c66 9 111 80 111 173c0 83 -45 131 -112 131c-51 0 -94 -24 -105 -78h-54c7 80 71 130 159 130c26 0 50 -5 71 -13c8 8 18 21 20 35h61c-4 -27 -21 -51 -37 -63c33 -31 53 -79 53 -142zM314 -138h-52
l-47 48l-46 -55l-50 55l-45 -48h-72v52h58l62 60l46 -51l46 51l44 -43v33l-17 36h73v-138z" />
    <glyph glyph-name="uni0E11" unicode="&#xe11;" horiz-adv-x="392" 
d="M357 0h-56v290c0 30 -5 65 -32 65c-20 0 -46 -33 -70 -76c-49 -88 -95 -210 -95 -256v-23h-55v238c0 59 53 65 53 100c0 7 -6 14 -11 14l-33 -30l-60 67l47 18l22 -27l24 20c39 3 64 -23 64 -59c0 -53 -51 -64 -51 -109v-50c14 35 30 73 54 115c35 60 73 109 112 109
c67 0 87 -56 87 -111v-295z" />
    <glyph glyph-name="uni0E12" unicode="&#xe12;" horiz-adv-x="616" 
d="M581 119c0 -83 -42 -126 -106 -126c-45 0 -85 25 -110 61v-54h-56v287c0 34 -18 57 -42 67l-68 -54l-66 54c-24 -10 -42 -33 -42 -67v-150c0 -24 -3 -60 -3 -60h2s16 32 26 46l75 102h-47v50h106v-48l-159 -227h-56v292c0 65 52 111 111 115l53 -43l55 43
c59 -4 111 -50 111 -115v-134c0 -45 38 -114 104 -114c36 0 56 24 56 78v278h56v-281z" />
    <glyph glyph-name="uni0E13" unicode="&#xe13;" horiz-adv-x="594" 
d="M559 0h-56v54c-25 -36 -65 -61 -110 -61c-64 0 -106 38 -106 121v158c0 61 -44 84 -102 84c-53 0 -87 -25 -98 -51c12 -6 37 -23 37 -44c0 -26 -33 -42 -33 -67v-142h56v-52h-112v198c0 30 35 48 35 61c0 12 -43 33 -43 33c8 74 77 115 159 115c85 0 157 -36 157 -129
v-157c0 -55 20 -77 56 -77c66 0 104 69 104 114v242h56v-400z" />
    <glyph glyph-name="uni0E14" unicode="&#xe14;" horiz-adv-x="390" 
d="M355 0h-56v269c0 61 -48 87 -104 87s-104 -26 -104 -87v-132c0 -24 -3 -60 -3 -60h2s19 33 27 46l71 107h-47v50h106v-48l-156 -232h-56v274c0 94 82 133 160 133s160 -39 160 -133v-274z" />
    <glyph glyph-name="uni0E15" unicode="&#xe15;" horiz-adv-x="400" 
d="M365 0h-56v287c0 34 -18 57 -42 67l-68 -54l-66 54c-24 -10 -42 -33 -42 -67v-150c0 -24 -3 -60 -3 -60h2s19 32 31 48l70 100h-46v50h106v-48l-160 -227h-56v292c0 65 52 111 111 115l53 -43l55 43c59 -4 111 -50 111 -115v-292z" />
    <glyph glyph-name="uni0E16" unicode="&#xe16;" horiz-adv-x="379" 
d="M343 0h-56v272c0 61 -44 84 -102 84c-53 0 -87 -25 -98 -51c12 -6 37 -23 37 -44c0 -26 -33 -42 -33 -67v-142h56v-52h-112v198c0 30 35 48 35 61c0 12 -43 33 -43 33c8 74 77 115 159 115c85 0 157 -36 157 -129v-278z" />
    <glyph glyph-name="uni0E17" unicode="&#xe17;" horiz-adv-x="378" 
d="M343 0h-56v274c0 57 -31 82 -74 82c-66 0 -122 -73 -122 -120v-236h-56v400h56v-63c20 36 71 70 128 70c68 0 124 -42 124 -129v-278z" />
    <glyph glyph-name="uni0E18" unicode="&#xe18;" horiz-adv-x="352" 
d="M332 139c0 -116 -77 -139 -147 -139h-155v210h56v-158h93c47 0 96 13 96 86c0 57 -39 71 -87 79c-76 12 -167 5 -167 89c0 62 66 101 143 101c82 0 162 -32 162 -120h-56c-4 54 -58 69 -107 69c-44 0 -85 -18 -85 -47c0 -34 73 -34 115 -40c74 -11 139 -36 139 -130z" />
    <glyph glyph-name="uni0E19" unicode="&#xe19;" horiz-adv-x="378" 
d="M343 0h-56v63c-20 -36 -71 -70 -128 -70c-68 0 -124 42 -124 129v278h56v-274c0 -57 31 -82 74 -82c66 0 122 73 122 120v236h56v-400z" />
    <glyph glyph-name="uni0E1A" unicode="&#xe1a;" horiz-adv-x="378" 
d="M343 125c0 -96 -78 -132 -154 -132c-75 0 -154 36 -154 132v275h56v-271c0 -58 46 -85 98 -85c50 0 98 27 98 85v271h56v-275z" />
    <glyph glyph-name="uni0E1B" unicode="&#xe1b;" horiz-adv-x="378" 
d="M343 125c0 -96 -78 -132 -154 -132c-75 0 -154 36 -154 132v275h56v-271c0 -58 46 -85 98 -85c50 0 98 27 98 85v368h56v-372z" />
    <glyph glyph-name="uni0E1C" unicode="&#xe1c;" horiz-adv-x="442" 
d="M407 114c0 -91 -47 -121 -100 -121c-44 0 -70 23 -86 51c-16 -28 -42 -51 -86 -51c-53 0 -100 30 -100 121v213c0 45 29 73 73 73h30v-53h-21c-15 0 -26 -10 -26 -26v-205c0 -53 18 -72 47 -72c38 0 55 33 55 91v265h56v-265c0 -58 17 -91 55 -91c29 0 47 19 47 72v284
h56v-286z" />
    <glyph glyph-name="uni0E1D" unicode="&#xe1d;" horiz-adv-x="442" 
d="M407 114c0 -91 -47 -121 -100 -121c-44 0 -70 23 -86 51c-16 -28 -42 -51 -86 -51c-53 0 -100 30 -100 121v213c0 45 29 73 73 73h30v-53h-21c-15 0 -26 -10 -26 -26v-205c0 -53 18 -72 47 -72c38 0 55 33 55 91v265h56v-265c0 -58 17 -91 55 -91c29 0 47 19 47 72v381
h56v-383z" />
    <glyph glyph-name="uni0E1E" unicode="&#xe1e;" horiz-adv-x="442" 
d="M407 114c0 -91 -47 -121 -100 -121c-44 0 -70 23 -86 51c-16 -28 -42 -51 -86 -51c-53 0 -100 30 -100 121v286h56v-284c0 -53 18 -72 47 -72c38 0 55 33 55 91v265h56v-265c0 -58 17 -91 55 -91c29 0 47 19 47 72v284h56v-286z" />
    <glyph glyph-name="uni0E1F" unicode="&#xe1f;" horiz-adv-x="442" 
d="M407 114c0 -91 -47 -121 -100 -121c-44 0 -70 23 -86 51c-16 -28 -42 -51 -86 -51c-53 0 -100 30 -100 121v286h56v-284c0 -53 18 -72 47 -72c38 0 55 33 55 91v265h56v-265c0 -58 17 -91 55 -91c29 0 47 19 47 72v381h56v-383z" />
    <glyph glyph-name="uni0E20" unicode="&#xe20;" horiz-adv-x="383" 
d="M348 0h-56v272c0 61 -44 84 -102 84c-53 0 -87 -25 -98 -51c12 -6 37 -23 37 -44c0 -26 -33 -42 -33 -67v-194h-91v52h35v146c0 30 35 48 35 61c0 12 -43 33 -43 33c8 74 77 115 159 115c85 0 157 -36 157 -129v-278z" />
    <glyph glyph-name="uni0E21" unicode="&#xe21;" horiz-adv-x="378" 
d="M343 122c0 -87 -56 -129 -124 -129c-57 0 -108 34 -128 70v-63h-56v400h56v-236c0 -47 56 -120 122 -120c43 0 74 25 74 82v274h56v-278z" />
    <glyph glyph-name="uni0E22" unicode="&#xe22;" horiz-adv-x="380" 
d="M345 0h-190c-82 0 -134 47 -134 123c0 53 34 89 73 104c-33 5 -66 36 -66 76c0 70 67 115 169 98v-53c-71 12 -112 -8 -112 -44c0 -42 48 -49 76 -49h128v145h56v-400zM289 52v151h-128c-46 0 -84 -28 -84 -76c0 -52 37 -75 89 -75h123z" />
    <glyph glyph-name="uni0E23" unicode="&#xe23;" horiz-adv-x="348" 
d="M327 125c0 -102 -78 -132 -155 -132c-76 0 -153 34 -155 142h53c2 -66 54 -91 102 -91c54 0 99 21 99 80c0 55 -46 69 -109 79c-51 8 -137 14 -137 99c0 64 68 105 142 105c71 0 154 -32 154 -122h-56c0 53 -53 71 -98 71c-43 0 -85 -18 -85 -54c0 -37 68 -43 107 -50
c72 -13 138 -31 138 -127z" />
    <glyph glyph-name="uni0E24" unicode="&#xe24;" horiz-adv-x="379" 
d="M343 -120h-56v392c0 61 -44 84 -102 84c-53 0 -87 -25 -98 -51c12 -6 37 -23 37 -44c0 -26 -33 -42 -33 -67v-142h56v-52h-112v198c0 30 35 48 35 61c0 12 -43 33 -43 33c8 74 77 115 159 115c85 0 157 -36 157 -129v-398z" />
    <glyph glyph-name="uni0E25" unicode="&#xe25;" horiz-adv-x="386" 
d="M351 0h-56v221c-32 -21 -87 -24 -134 -28c-46 -4 -84 -25 -84 -76c0 -72 75 -80 141 -63v-53c-97 -19 -197 3 -197 116c0 74 47 115 118 124c51 6 153 -1 153 57c0 36 -39 58 -95 58c-53 0 -100 -27 -100 -74h-55c0 91 86 125 155 125c72 0 154 -26 154 -118v-289z" />
    <glyph glyph-name="uni0E26" unicode="&#xe26;" horiz-adv-x="383" 
d="M348 -120h-56v392c0 61 -44 84 -102 84c-53 0 -87 -25 -98 -51c12 -6 37 -23 37 -44c0 -26 -33 -42 -33 -67v-194h-91v52h35v146c0 30 35 48 35 61c0 12 -43 33 -43 33c8 74 77 115 159 115c85 0 157 -36 157 -129v-398z" />
    <glyph glyph-name="uni0E27" unicode="&#xe27;" horiz-adv-x="357" 
d="M339 202c0 -151 -74 -209 -163 -209c-72 0 -144 41 -159 148h58c14 -71 55 -97 101 -97c63 0 106 49 106 158s-44 154 -106 154c-48 0 -90 -31 -102 -97h-58c18 112 88 148 160 148c88 0 163 -52 163 -205z" />
    <glyph glyph-name="uni0E28" unicode="&#xe28;" horiz-adv-x="378" 
d="M343 0h-56v279c0 54 -50 77 -98 77c-50 0 -98 -23 -98 -77v-47h112v-52h-112v-180h-56v279c0 90 82 128 154 128c24 0 49 -4 72 -13c8 9 17 22 19 35h61c-4 -26 -20 -50 -35 -63c23 -20 37 -49 37 -87v-279z" />
    <glyph glyph-name="uni0E29" unicode="&#xe29;" horiz-adv-x="383" 
d="M371 194h-28v-69c0 -96 -78 -132 -154 -132c-75 0 -154 36 -154 132v275h56v-271c0 -58 46 -85 98 -85c50 0 98 27 98 85v65h-114v81h56v-31h58v156h56v-156h28v-50z" />
    <glyph glyph-name="uni0E2A" unicode="&#xe2a;" horiz-adv-x="386" 
d="M351 0h-56v221c-32 -21 -87 -24 -134 -28c-46 -4 -84 -25 -84 -76c0 -72 75 -80 141 -63v-53c-97 -19 -197 3 -197 116c0 74 47 115 118 124c51 6 153 -1 153 57c0 36 -39 58 -95 58c-53 0 -100 -27 -100 -74h-55c0 91 86 125 155 125c23 0 48 -3 70 -10c8 8 14 20 16 32
h61c-3 -23 -15 -43 -30 -56c22 -18 37 -45 37 -84v-289z" />
    <glyph glyph-name="uni0E2B" unicode="&#xe2b;" horiz-adv-x="378" 
d="M325 348h-180v52h180v-52zM343 0h-56v206c0 56 -31 75 -74 75c-65 0 -122 -71 -122 -115v-166h-56v400h56v-135c27 35 74 68 128 68c73 0 124 -36 124 -125v-208z" />
    <glyph glyph-name="uni0E2C" unicode="&#xe2c;" horiz-adv-x="442" 
d="M410 497c5 -50 -20 -88 -60 -99c44 -14 57 -47 57 -82v-202c0 -91 -47 -121 -100 -121c-44 0 -70 23 -86 51c-16 -28 -42 -51 -86 -51c-53 0 -100 30 -100 121v286h56v-284c0 -53 18 -72 47 -72c38 0 55 33 55 91v197h56v-197c0 -58 17 -91 55 -91c29 0 47 19 47 72v205
c0 31 -21 56 -58 56h-100v47h102c34 0 67 20 62 73h53z" />
    <glyph glyph-name="uni0E2D" unicode="&#xe2d;" horiz-adv-x="417" 
d="M396 202c0 -144 -86 -209 -188 -209c-103 0 -188 67 -188 209c0 18 2 37 3 45h135v-51h-82c2 -98 55 -152 132 -152c76 0 132 52 132 158s-56 154 -132 154c-52 0 -101 -25 -119 -79h-60c26 93 103 130 179 130c101 0 188 -61 188 -205z" />
    <glyph glyph-name="uni0E2E" unicode="&#xe2e;" horiz-adv-x="417" 
d="M396 202c0 -144 -86 -209 -188 -209c-103 0 -188 67 -188 209c0 18 2 37 3 45h135v-51h-82c2 -98 55 -152 132 -152c76 0 132 52 132 158s-56 154 -132 154c-52 0 -101 -25 -119 -79h-60c26 93 103 130 179 130c28 0 55 -5 80 -15c8 10 15 26 18 37h61
c-3 -22 -16 -47 -35 -64c39 -32 64 -86 64 -163z" />
    <glyph glyph-name="uni0E2F" unicode="&#xe2f;" horiz-adv-x="354" 
d="M319 0h-55v292c-25 -33 -71 -67 -135 -67c-47 0 -108 25 -108 91c0 78 88 104 157 81v-56c-43 23 -102 12 -102 -26c0 -26 30 -40 57 -40c80 0 119 55 132 125h54v-400z" />
    <glyph glyph-name="uni0E30" unicode="&#xe30;" horiz-adv-x="185" 
d="M164 269h-139v82h58v-30h81v-52zM164 51h-139v82h58v-30h81v-52z" />
    <glyph glyph-name="uni0E31" unicode="&#xe31;" 
d="M73 460h-259v91h56v-41h203v-50z" />
    <glyph glyph-name="uni0E32" unicode="&#xe32;" horiz-adv-x="206" 
d="M171 0h-56v301c0 46 -41 56 -105 48v51c85 12 161 -10 161 -91v-309z" />
    <glyph glyph-name="uni0E33" unicode="&#xe33;" horiz-adv-x="206" 
d="M0 512c0 -32 -26 -55 -63 -55c-36 0 -61 22 -61 55c0 31 24 54 61 54c38 0 63 -23 63 -54zM171 0h-56v301c0 46 -41 56 -105 48v51c85 12 161 -10 161 -91v-309zM-39 512c0 11 -9 21 -24 21s-24 -10 -24 -21s9 -21 24 -21s24 10 24 21z" />
    <glyph glyph-name="uni0E34" unicode="&#xe34;" 
d="M-35 460h-290v50h290v-50z" />
    <glyph glyph-name="uni0E35" unicode="&#xe35;" 
d="M-35 460h-290v50h234v53h56v-103z" />
    <glyph glyph-name="uni0E36" unicode="&#xe36;" 
d="M-3 514c0 -30 -26 -54 -60 -54h-262v50h204v4c0 29 22 52 58 52c37 0 60 -23 60 -52zM-41 514c0 11 -9 20 -22 20c-12 0 -21 -9 -21 -20s9 -20 21 -20c13 0 22 9 22 20z" />
    <glyph glyph-name="uni0E37" unicode="&#xe37;" 
d="M-35 460h-290v50h148v53h56v-53h30v53h56v-103z" />
    <glyph glyph-name="uni0E38" unicode="&#xe38;" 
d="M-35 -168h-56v76h-32v52h88v-128z" />
    <glyph glyph-name="uni0E39" unicode="&#xe39;" 
d="M-35 -99c0 -44 -30 -69 -85 -69c-56 0 -83 25 -83 69v7h-24v52h80v-61c0 -15 11 -21 27 -21s29 6 29 21v61h56v-59z" />
    <glyph glyph-name="uni0E3A" unicode="&#xe3a;" 
d="M-22 -81c0 -23 -18 -41 -41 -41s-41 18 -41 41s18 41 41 41s41 -18 41 -41z" />
    <glyph glyph-name="uni0E3F" unicode="&#xe3f;" horiz-adv-x="414" 
d="M391 140c0 -97 -80 -140 -149 -140h-12v-74h-53v74h-136v471h136v69h53v-69c93 -1 146 -48 146 -124c0 -42 -21 -78 -64 -98c44 -16 79 -59 79 -109zM317 347c0 51 -42 70 -87 71v-147c43 1 87 23 87 76zM177 271v147h-78v-147h78zM332 140c0 49 -38 77 -102 78v-165
c60 2 102 31 102 87zM177 53v165h-78v-165h78z" />
    <glyph glyph-name="uni0E40" unicode="&#xe40;" horiz-adv-x="153" 
d="M105 0h-57v400h57v-400z" />
    <glyph glyph-name="uni0E41" unicode="&#xe41;" horiz-adv-x="270" 
d="M222 0h-57v400h57v-400zM105 0h-57v400h57v-400z" />
    <glyph glyph-name="uni0E42" unicode="&#xe42;" horiz-adv-x="166" 
d="M220 568h-117c-16 0 -32 0 -32 -12c0 -20 43 -24 43 -74v-482h-56v475c0 50 -42 44 -42 87c0 31 21 58 78 58h126v-52z" />
    <glyph glyph-name="uni0E43" unicode="&#xe43;" horiz-adv-x="166" 
d="M157 544c0 -45 -43 -46 -43 -90v-454h-56v458c0 45 42 52 42 83c0 15 -13 29 -40 29c-34 0 -48 -21 -47 -49h-55c-6 57 35 99 100 99c64 0 99 -28 99 -76z" />
    <glyph glyph-name="uni0E44" unicode="&#xe44;" horiz-adv-x="166" 
d="M138 546c0 -29 -24 -39 -24 -67v-479h-56v482c0 30 27 36 27 54c0 6 -8 10 -16 10h-13l-40 -28l-84 46l36 40l48 -28l32 20h23c37 0 67 -14 67 -50z" />
    <glyph glyph-name="uni0E45" unicode="&#xe45;" horiz-adv-x="206" 
d="M171 -120h-56v421c0 46 -41 56 -105 48v51c85 12 161 -10 161 -91v-429z" />
    <glyph glyph-name="uni0E46" unicode="&#xe46;" horiz-adv-x="346" 
d="M311 -120h-56v455l-50 -51l-76 67c-29 -3 -51 -23 -51 -50c0 -36 32 -48 69 -45v-53c-52 -7 -126 8 -126 95c0 62 48 107 127 107l57 -52l50 47h56v-520z" />
    <glyph glyph-name="uni0E47" unicode="&#xe47;" 
d="M-35 552h-181c-28 0 -45 -12 -45 -26c0 -12 11 -17 11 -17h35l75 32l91 -36v-50l-99 40l-68 -35h-59c-19 9 -41 28 -41 66c0 36 30 76 94 76h187v-50z" />
    <glyph glyph-name="uni0E48" unicode="&#xe48;" 
d="M-35 593h-56v99h56v-99z" />
    <glyph glyph-name="uni0E49" unicode="&#xe49;" 
d="M29 593h-164v33c0 9 -5 17 -16 17h-19v47h31c37 0 55 -13 55 -43v-7h113v-47z" />
    <glyph glyph-name="uni0E4A" unicode="&#xe4a;" 
d="M72 593h-85v41c0 13 -10 21 -20 21h-2l-39 -29l-40 29h-1c-10 0 -21 -9 -18 -21h30v-41h-79v51c0 35 29 54 66 54h6l36 -26l34 26h9c37 0 65 -19 65 -54v-6h38v-45z" />
    <glyph glyph-name="uni0E4B" unicode="&#xe4b;" 
d="M7 633h-45v-40h-50v40h-44v45h44v40h50v-40h45v-45z" />
    <glyph glyph-name="uni0E4C" unicode="&#xe4c;" 
d="M1 588h-55c-12 0 -18 -8 -18 -18v-14h-53v23c0 35 22 54 66 54h60v-45z" />
    <glyph glyph-name="uni0E4D" unicode="&#xe4d;" 
d="M0 512c0 -32 -26 -55 -63 -55c-36 0 -61 22 -61 55c0 31 24 54 61 54c38 0 63 -23 63 -54zM-39 512c0 11 -9 21 -24 21s-24 -10 -24 -21s9 -21 24 -21s24 10 24 21z" />
    <glyph glyph-name="uni0E4E" unicode="&#xe4e;" 
d="M24 658c-66 7 -136 -9 -136 -40c0 -19 29 -21 55 -20v-44c-46 7 -114 -4 -114 -38c0 -9 13 -12 22 -12c17 0 35 5 52 13l21 -38c-22 -12 -43 -19 -74 -19c-40 0 -71 21 -71 55c0 37 31 63 80 69c-11 7 -21 17 -21 35c0 53 72 90 186 82v-43z" />
    <glyph glyph-name="uni0E4F" unicode="&#xe4f;" horiz-adv-x="470" 
d="M440 200c0 -113 -92 -205 -205 -205s-205 92 -205 205s92 205 205 205s205 -92 205 -205zM410 200c0 96 -79 175 -175 175s-175 -79 -175 -175s79 -175 175 -175s175 79 175 175zM360 200c0 -69 -56 -125 -125 -125s-125 56 -125 125s56 125 125 125s125 -56 125 -125z
" />
    <glyph glyph-name="uni0E50" unicode="&#xe50;" horiz-adv-x="358" 
d="M337 152c0 -98 -72 -160 -159 -160s-157 62 -157 160s70 159 157 159s159 -61 159 -159zM281 152c0 64 -46 107 -103 107s-101 -43 -101 -107c0 -65 44 -108 101 -108s103 43 103 108z" />
    <glyph glyph-name="uni0E51" unicode="&#xe51;" horiz-adv-x="380" 
d="M359 158c0 -106 -100 -183 -197 -196l-26 47c91 13 167 71 167 149c0 61 -54 100 -116 100c-58 0 -110 -37 -110 -93c0 -40 27 -72 58 -74c-13 10 -23 30 -23 49c0 42 30 74 73 74c41 0 75 -32 75 -74c0 -56 -54 -102 -120 -102c-71 0 -119 56 -119 127
c0 92 79 145 165 145c95 0 173 -55 173 -152zM212 141c0 16 -12 28 -27 28s-27 -12 -27 -28s12 -28 27 -28s27 12 27 28z" />
    <glyph glyph-name="uni0E52" unicode="&#xe52;" horiz-adv-x="517" 
d="M482 95c0 -64 -39 -95 -101 -95h-245c-62 0 -101 31 -101 95v230c0 21 -16 35 -55 41l26 45c53 -5 85 -29 85 -75v-241c0 -30 18 -42 46 -42h243c28 0 46 12 46 42v118c0 29 -15 45 -45 45c-22 0 -41 -17 -41 -39v-139h-57v140c0 23 -24 38 -50 38c-31 0 -55 -15 -55 -47
v-4c4 1 7 1 10 1c39 0 69 -27 69 -64c0 -39 -30 -66 -69 -66c-38 0 -67 26 -67 66v67c0 65 47 99 108 99c35 0 66 -13 82 -36c14 22 40 36 73 36c59 0 98 -33 98 -95v-120zM214 144c0 14 -11 25 -25 25s-25 -11 -25 -25s11 -25 25 -25s25 11 25 25z" />
    <glyph glyph-name="uni0E53" unicode="&#xe53;" horiz-adv-x="461" 
d="M426 0h-56v205c0 37 -21 53 -51 53c-28 0 -51 -19 -51 -46v-212h-56v212c0 31 -28 46 -59 46c-37 0 -62 -22 -62 -54v-68c5 1 11 2 17 2c41 0 75 -29 75 -71c0 -43 -34 -72 -75 -72s-73 29 -73 72v136c0 72 60 107 118 107c38 0 71 -13 88 -36c15 22 46 36 81 36
c62 0 104 -34 104 -98v-212zM137 67c0 16 -13 28 -28 28s-28 -12 -28 -28s13 -28 28 -28s28 12 28 28z" />
    <glyph glyph-name="uni0E54" unicode="&#xe54;" horiz-adv-x="408" 
d="M405 36l-31 -45c-37 20 -67 23 -80 23c-36 0 -62 -19 -122 -19c-78 0 -151 53 -151 157c0 99 70 159 158 159c53 0 62 -3 103 -3c42 0 67 59 67 112h55c2 -86 -47 -165 -120 -165c-39 0 -56 4 -105 4c-57 0 -104 -43 -104 -107c0 -69 50 -107 101 -107c23 0 46 6 59 9
c-29 15 -56 43 -56 84c0 44 34 76 75 76s75 -31 75 -73c0 -25 -15 -48 -35 -62c22 -20 79 -10 111 -43zM282 141c0 17 -13 29 -28 29s-28 -12 -28 -29s13 -29 28 -29s28 12 28 29z" />
    <glyph glyph-name="uni0E55" unicode="&#xe55;" horiz-adv-x="414" 
d="M414 420c2 -86 -45 -165 -123 -165c-39 0 -63 4 -112 4c-57 0 -104 -43 -104 -107c0 -69 50 -107 101 -107c23 0 46 6 59 9c-29 15 -56 43 -56 84c0 44 34 76 75 76s75 -31 75 -73c0 -25 -15 -48 -35 -62c22 -20 79 -10 111 -43l-31 -45c-37 20 -67 23 -80 23
c-36 0 -62 -19 -122 -19c-78 0 -151 53 -151 157c0 87 54 144 126 156c-5 7 -10 17 -10 31c0 43 31 72 77 72c47 0 79 -29 79 -72c0 -11 -5 -24 -11 -31c56 0 77 59 77 112h55zM245 337c0 15 -14 28 -31 28c-16 0 -29 -13 -29 -28c0 -16 13 -29 29 -29c17 0 31 13 31 29z
M282 141c0 17 -13 29 -28 29s-28 -12 -28 -29s13 -29 28 -29s28 12 28 29z" />
    <glyph glyph-name="uni0E56" unicode="&#xe56;" horiz-adv-x="384" 
d="M362 157c0 -99 -77 -164 -173 -164s-155 59 -155 121c0 45 33 73 74 73s75 -29 75 -72c0 -29 -17 -53 -44 -63c15 -5 30 -7 50 -7c63 0 118 48 118 112c0 59 -48 101 -109 101c-45 0 -82 -24 -97 -51h-51c-7 74 -33 122 -92 170l46 34c53 -33 85 -91 90 -139
c20 20 63 38 105 38c90 0 163 -56 163 -153zM136 115c0 17 -13 29 -28 29s-28 -12 -28 -29s13 -29 28 -29s28 12 28 29z" />
    <glyph glyph-name="uni0E57" unicode="&#xe57;" horiz-adv-x="554" 
d="M577 381c-27 -21 -44 -43 -50 -71c-8 -39 6 -87 2 -140c-8 -94 -58 -155 -118 -170h-41v205c0 37 -21 53 -51 53c-28 0 -51 -19 -51 -46v-212h-56v212c0 31 -28 46 -59 46c-37 0 -62 -22 -62 -54v-68c5 1 11 2 17 2c41 0 75 -29 75 -71c0 -43 -34 -72 -75 -72
s-73 29 -73 72v136c0 72 60 107 118 107c38 0 71 -13 88 -36c15 22 46 36 81 36c62 0 104 -34 104 -98v-149c24 17 46 57 49 110c5 59 -10 90 -2 146c7 45 34 76 61 99zM136 67c0 16 -12 28 -27 28s-27 -12 -27 -28s12 -28 27 -28s27 12 27 28z" />
    <glyph glyph-name="uni0E58" unicode="&#xe58;" horiz-adv-x="415" 
d="M412 412c-7 -78 -33 -169 -110 -169c-45 0 -71 15 -120 15c-65 0 -105 -35 -105 -94c0 -54 25 -93 53 -107l62 72s56 -83 86 -83c9 0 20 9 28 18c-29 7 -52 32 -52 65c0 38 29 66 67 66c36 0 71 -25 71 -69c0 -62 -70 -133 -117 -133c-30 0 -65 36 -84 58
c0 1 -43 -59 -43 -59c-71 12 -127 77 -127 172c0 94 65 146 159 146c50 0 85 -14 119 -14c40 0 53 63 59 116h54zM346 129c0 14 -11 25 -25 25s-25 -11 -25 -25s11 -25 25 -25s25 11 25 25z" />
    <glyph glyph-name="uni0E59" unicode="&#xe59;" horiz-adv-x="458" 
d="M464 413c13 -65 -6 -149 -45 -203l-38 12c-3 20 -12 39 -34 39c-20 0 -28 -20 -28 -38c37 -58 56 -139 64 -221l-51 -9c-18 121 -52 266 -159 266c-56 0 -96 -46 -96 -108c0 -50 25 -88 46 -98c-5 8 -8 19 -8 31c0 39 29 69 73 69c43 0 74 -32 74 -73
c0 -49 -45 -87 -103 -87c-88 0 -138 74 -138 160c0 96 67 157 152 157c40 0 79 -13 107 -37c11 23 30 40 67 40c25 0 43 -8 55 -19c11 30 13 73 8 119h54zM215 81c0 16 -12 28 -27 28s-27 -12 -27 -28s12 -28 27 -28s27 12 27 28z" />
    <glyph glyph-name="uni0E5A" unicode="&#xe5a;" horiz-adv-x="459" 
d="M424 0h-55v400h55v-400zM319 0h-55v292c-25 -33 -71 -67 -135 -67c-47 0 -108 25 -108 91c0 78 88 104 157 81v-56c-43 23 -102 12 -102 -26c0 -26 30 -40 57 -40c80 0 119 55 132 125h54v-400z" />
    <glyph glyph-name="uni0E5B" unicode="&#xe5b;" horiz-adv-x="664" 
d="M643 209c0 -10 -12 -17 -27 -18l-47 -5c-5 -13 -14 -28 -26 -28c-8 0 -18 15 -26 31c-7 -21 -18 -42 -29 -42c-10 0 -22 23 -34 46c-7 -28 -16 -56 -29 -56s-24 30 -36 60c-9 -36 -24 -72 -39 -72c-17 0 -24 39 -33 70c-23 -101 -82 -159 -155 -159
c-74 0 -132 65 -132 164c0 93 50 165 117 165c61 0 101 -58 101 -131c0 -55 -27 -93 -65 -93c-32 0 -58 29 -58 66c0 35 26 66 57 66c5 0 9 -1 13 -3c-7 28 -26 47 -47 47c-38 0 -68 -53 -68 -121c0 -65 36 -113 83 -113c58 0 105 65 118 166c3 32 10 40 27 40
c14 0 33 -31 46 -67c5 31 12 59 25 59c12 0 30 -24 44 -55c4 19 12 36 20 36c14 0 29 -16 44 -48c6 19 12 35 25 35c11 0 21 -13 30 -29c5 9 12 13 23 13l51 -7c14 -2 27 -7 27 -17zM202 207c0 15 -9 24 -19 24s-20 -9 -20 -24s9 -25 20 -25c10 0 19 10 19 25z" />
    <glyph glyph-name="endash" unicode="&#x2013;" horiz-adv-x="386" 
d="M356 141h-326v54h326v-54z" />
    <glyph glyph-name="emdash" unicode="&#x2014;" horiz-adv-x="772" 
d="M742 141h-712v54h712v-54z" />
    <glyph glyph-name="quoteleft" unicode="&#x2018;" horiz-adv-x="174" 
d="M134 381c0 -25 -18 -44 -44 -44c-31 0 -50 23 -50 57c0 41 28 82 68 103l26 -22c-20 -10 -44 -34 -49 -51c29 3 49 -16 49 -43z" />
    <glyph glyph-name="quoteright" unicode="&#x2019;" horiz-adv-x="174" 
d="M134 440c0 -41 -28 -82 -68 -103l-26 22c20 10 44 34 49 51c-29 -3 -49 16 -49 43c0 25 18 44 44 44c31 0 50 -23 50 -57z" />
    <glyph glyph-name="quotedblleft" unicode="&#x201c;" horiz-adv-x="303" 
d="M263 381c0 -25 -18 -44 -44 -44c-31 0 -50 23 -50 57c0 41 28 82 68 103l26 -22c-20 -10 -44 -34 -49 -51c29 3 49 -16 49 -43zM134 381c0 -25 -18 -44 -44 -44c-31 0 -50 23 -50 57c0 41 28 82 68 103l26 -22c-20 -10 -44 -34 -49 -51c29 3 49 -16 49 -43z" />
    <glyph glyph-name="quotedblright" unicode="&#x201d;" horiz-adv-x="303" 
d="M263 440c0 -41 -28 -82 -68 -103l-26 22c20 10 44 34 49 51c-29 -3 -49 16 -49 43c0 25 18 44 44 44c31 0 50 -23 50 -57zM134 440c0 -41 -28 -82 -68 -103l-26 22c20 10 44 34 49 51c-29 -3 -49 16 -49 43c0 25 18 44 44 44c31 0 50 -23 50 -57z" />
    <glyph glyph-name="bullet" unicode="&#x2022;" horiz-adv-x="360" 
d="M330 200c0 -83 -67 -150 -150 -150s-150 67 -150 150s67 150 150 150s150 -67 150 -150z" />
    <glyph glyph-name="ellipsis" unicode="&#x2026;" horiz-adv-x="486" 
d="M446 36c0 -22 -19 -41 -41 -41s-41 19 -41 41s19 41 41 41s41 -19 41 -41zM284 36c0 -22 -19 -41 -41 -41s-41 19 -41 41s19 41 41 41s41 -19 41 -41zM122 36c0 -22 -19 -41 -41 -41s-41 19 -41 41s19 41 41 41s41 -19 41 -41z" />
    <glyph glyph-name="thothannobasethai" unicode="&#xf700;" horiz-adv-x="348" 
d="M327 224c0 -144 -77 -231 -209 -227l-53 215l-21 34h69l47 -195c66 9 111 80 111 173c0 83 -45 131 -112 131c-51 0 -94 -24 -105 -78h-54c7 80 71 130 159 130c26 0 50 -5 71 -13c8 8 18 21 20 35h61c-4 -27 -21 -51 -37 -63c33 -31 53 -79 53 -142z" />
    <glyph glyph-name="saraileftthai" unicode="&#xf701;" 
d="M-131 460h-270v50h270v-50z" />
    <glyph glyph-name="saraiileftthai" unicode="&#xf702;" 
d="M-131 460h-270v50h214v53h56v-103z" />
    <glyph glyph-name="saraueleftthai" unicode="&#xf703;" 
d="M-99 514c0 -30 -26 -54 -60 -54h-242v50h184v4c0 29 22 52 58 52c37 0 60 -23 60 -52zM-137 514c0 11 -9 20 -22 20c-12 0 -21 -9 -21 -20s9 -20 21 -20c13 0 22 9 22 20z" />
    <glyph glyph-name="saraueeleftthai" unicode="&#xf704;" 
d="M-131 460h-270v50h128v53h56v-53h30v53h56v-103z" />
    <glyph glyph-name="maieklowleftthai" unicode="&#xf705;" 
d="M-139 460h-56v119h56v-119z" />
    <glyph glyph-name="maitholowleftthai" unicode="&#xf706;" 
d="M27 460h-193v35c0 10 -5 18 -17 18h-20v50h33c39 0 58 -14 58 -46v-7h139v-50z" />
    <glyph glyph-name="maitrilowleftthai" unicode="&#xf707;" 
d="M-10 460h-134v46c0 14 -11 23 -22 23h-2l-43 -32l-45 32h-1c-11 0 -23 -10 -20 -23h33v-46h-87v51c0 41 32 66 73 66h7l40 -29l37 29h10c41 0 73 -24 73 -66v-1h81v-50z" />
    <glyph glyph-name="maichattawalowleftthai" unicode="&#xf708;" 
d="M-100 505h-49v-45h-56v45h-49v49h49v45h56v-45h49v-49z" />
    <glyph glyph-name="thanthakhatlowleftthai" unicode="&#xf709;" 
d="M-50 527h-61c-13 0 -20 -9 -20 -20v-16h-58v26c0 39 24 60 73 60h66v-50z" />
    <glyph glyph-name="maieklowrightthai" unicode="&#xf70a;" 
d="M-35 460h-56v119h56v-119z" />
    <glyph glyph-name="maitholowrightthai" unicode="&#xf70b;" 
d="M21 460h-173v35c0 10 -5 18 -17 18h-20v50h33c39 0 58 -14 58 -46v-7h119v-50z" />
    <glyph glyph-name="maitrilowrightthai" unicode="&#xf70c;" 
d="M-10 460h-106v46c0 14 -11 23 -22 23h-2l-43 -32l-45 32h-1c-11 0 -23 -10 -20 -23h33v-46h-87v51c0 41 32 66 73 66h7l40 -29l37 29h10c41 0 73 -24 73 -66v-1h53v-50z" />
    <glyph glyph-name="maichattawalowrightthai" unicode="&#xf70d;" 
d="M-35 505h-49v-45h-56v45h-49v49h49v45h56v-45h49v-49z" />
    <glyph glyph-name="thanthakhatlowrightthai" unicode="&#xf70e;" 
d="M-5 496h-61c-13 0 -20 -9 -20 -20v-16h-58v26c0 39 24 60 73 60h66v-50z" />
    <glyph glyph-name="yoyingnobasethai" unicode="&#xf70f;" horiz-adv-x="594" 
d="M559 113c0 -93 -75 -120 -137 -120c-60 0 -135 27 -135 120v159c0 61 -44 84 -102 84c-53 0 -87 -25 -98 -51c12 -6 37 -23 37 -44c0 -26 -33 -42 -33 -67v-142h56v-52h-112v198c0 30 35 48 35 61c0 12 -43 33 -43 33c8 74 77 115 159 115c85 0 157 -36 157 -129v-161
c0 -57 38 -73 79 -73s81 16 81 73v283h56v-287z" />
    <glyph glyph-name="maihanakatleftthai" unicode="&#xf710;" 
d="M10 460h-279v91h56v-41h223v-50z" />
    <glyph glyph-name="nikhahitleftthai" unicode="&#xf711;" 
d="M-96 512c0 -32 -26 -55 -63 -55c-36 0 -61 22 -61 55c0 31 24 54 61 54c38 0 63 -23 63 -54zM-135 512c0 11 -9 21 -24 21s-24 -10 -24 -21s9 -21 24 -21s24 10 24 21z" />
    <glyph glyph-name="maitaikhuleftthai" unicode="&#xf712;" 
d="M-117 552h-181c-28 0 -45 -12 -45 -26c0 -12 11 -17 11 -17h35l75 32l91 -36v-50l-99 40l-68 -35h-59c-19 9 -41 28 -41 66c0 36 30 76 94 76h187v-50z" />
    <glyph glyph-name="maiekupperleftthai" unicode="&#xf713;" 
d="M-131 593h-56v99h56v-99z" />
    <glyph glyph-name="maithoupperleftthai" unicode="&#xf714;" 
d="M-52 593h-164v33c0 9 -5 17 -16 17h-19v47h31c37 0 55 -13 55 -43v-7h113v-47z" />
    <glyph glyph-name="maitriupperleftthai" unicode="&#xf715;" 
d="M-4 593h-95v41c0 13 -10 21 -20 21h-2l-39 -29l-40 29h-1c-10 0 -21 -9 -18 -21h30v-41h-79v46c0 37 29 59 66 59h6l36 -26l34 26h9c37 0 65 -21 65 -59v-1h48v-45z" />
    <glyph glyph-name="maichattawaupperleftthai" unicode="&#xf716;" 
d="M-89 633h-45v-40h-50v40h-44v45h44v40h50v-40h45v-45z" />
    <glyph glyph-name="thanthakhatupperleftthai" unicode="&#xf717;" 
d="M-95 588h-55c-12 0 -18 -8 -18 -18v-14h-53v23c0 35 22 54 66 54h60v-45z" />
    <glyph glyph-name="saraulowthai" unicode="&#xf718;" 
d="M-35 -298h-56v76h-32v52h88v-128z" />
    <glyph glyph-name="sarauulowthai" unicode="&#xf719;" 
d="M-35 -229c0 -44 -30 -69 -85 -69c-56 0 -83 25 -83 69v7h-24v52h80v-61c0 -15 11 -21 27 -21s29 6 29 21v61h56v-59z" />
    <glyph glyph-name="phinthulowthai" unicode="&#xf71a;" 
d="M-35 -209c0 -22 -19 -41 -41 -41s-41 19 -41 41s19 41 41 41s41 -19 41 -41z" />
    <glyph glyph-name="minus" unicode="&#xad;" horiz-adv-x="386" 
d="M356 141h-326v54h326v-54z" />
    <glyph glyph-name="uni0E33_1" horiz-adv-x="206" 
d="M-96 512c0 -32 -26 -55 -63 -55c-36 0 -61 22 -61 55c0 31 24 54 61 54c38 0 63 -23 63 -54zM171 0h-56v301c0 46 -41 56 -105 48v51c85 12 161 -10 161 -91v-309zM-135 512c0 11 -9 21 -24 21s-24 -10 -24 -21s9 -21 24 -21s24 10 24 21z" />
    <glyph glyph-name="uni0E4E_1" 
d="M-22 658c-66 7 -136 -9 -136 -40c0 -19 29 -21 55 -20v-44c-46 7 -114 -4 -114 -38c0 -9 13 -12 22 -12c17 0 35 5 52 13l21 -38c-22 -12 -43 -19 -74 -19c-40 0 -71 21 -71 55c0 37 31 63 80 69c-11 7 -21 17 -21 35c0 53 72 90 186 82v-43z" />
    <glyph glyph-name="currency" unicode="&#xa4;" horiz-adv-x="410" 
d="M206 356c-31 0 -57 -11 -78 -33c-21 -24 -32 -50 -32 -78c0 -31 10 -57 31 -80c21 -22 47 -33 79 -33c30 0 56 11 77 33c21 21 31 47 31 80c0 60 -45 111 -108 111zM4 80l72 71c-20 27 -30 58 -30 94c0 37 10 68 30 92l-72 73l37 35l71 -71c26 19 57 29 94 29
c36 0 71 -11 92 -29l73 71l35 -35l-71 -73c19 -26 29 -56 29 -92c0 -37 -10 -68 -29 -94l71 -71l-35 -37l-73 72c-10 -8 -24 -15 -41 -21s-34 -9 -51 -9c-36 0 -67 10 -94 30l-71 -72z" />
    <glyph glyph-name="copyright" unicode="&#xa9;" horiz-adv-x="552" 
d="M522 235c0 -136 -110 -246 -246 -246s-246 110 -246 246s110 246 246 246s246 -110 246 -246zM481 235c0 113 -92 205 -205 205s-205 -92 -205 -205s92 -205 205 -205s205 92 205 205zM407 195c-5 -69 -54 -119 -130 -119c-87 0 -144 73 -144 158s49 158 144 158
c78 0 126 -48 129 -115h-47c-4 40 -32 71 -81 71c-65 0 -98 -55 -98 -111c0 -63 36 -116 98 -116c46 0 76 32 82 74h47z" />
    <glyph glyph-name="fongmanfunnuthai" unicode="&#xf880;" 
 />
    <glyph glyph-name="lochula.short" unicode="&#xf71d;" horiz-adv-x="492" 
 />
    <glyph glyph-name="dollar" unicode="$" horiz-adv-x="414" 
d="M386 126c0 -72 -58 -128 -153 -136v-64h-53v64c-116 12 -159 89 -154 176h57c-1 -68 32 -110 97 -121v173c-70 13 -142 41 -142 131c0 64 51 124 142 131v60h53v-61c89 -11 145 -68 142 -155h-57c-2 57 -30 91 -85 100v-160c99 -19 153 -51 153 -138zM180 274v152
c-46 -6 -83 -35 -83 -78c0 -46 35 -64 83 -74zM327 126c0 48 -29 68 -94 82v-164c48 6 94 31 94 82z" />
    <glyph glyph-name="zerowidthnonjoiner" unicode="&#x200c;" 
 />
    <glyph glyph-name="zerowidthjoiner" unicode="&#x200d;" 
 />
    <glyph glyph-name="F881" 
 />
    <glyph glyph-name="maiekrochula" 
d="M-144 471h-56v119h56v-119z" />
    <glyph glyph-name="maieksarauee_1" 
d="M-78 593h-56v99h56v-99z" />
    <glyph glyph-name="maieksarauee_2" 
d="M-174 593h-56v99h56v-99z" />
    <glyph glyph-name="saraisp" 
d="M-114 471h-273v50h273v-50z" />
    <glyph glyph-name="saraiisp" 
d="M-114 471h-273v50h217v53h56v-103z" />
    <glyph glyph-name="numbersign" unicode="#" horiz-adv-x="376" 
d="M356 292h-73l-15 -105h68v-51h-75l-19 -136h-51l19 136h-71l-19 -136h-51l19 136h-68v51h75l15 105h-71v50h78l18 129h51l-18 -129h71l18 129h51l-18 -129h66v-50zM232 292h-71l-15 -105h71z" />
    <glyph glyph-name="trademark" unicode="&#x2122;" horiz-adv-x="562" 
d="M522 203h-47v181l-64 -181h-39l-62 181v-181h-47v268h59l71 -206l69 206h60v-268zM233 428h-84v-225h-47v225h-82v43h213v-43z" />
    <glyph glyph-name="cent" unicode="&#xa2;" horiz-adv-x="347" 
d="M325 194c-9 -72 -49 -125 -122 -136v-77h-48v77c-84 11 -133 83 -133 181c0 85 45 160 133 171v75h48v-76c76 -8 112 -58 119 -120h-52c-7 35 -26 62 -67 69v-248c40 10 62 43 68 84h54zM155 109v250c-52 -11 -78 -60 -78 -120c0 -66 27 -118 78 -130z" />
    <glyph glyph-name="sterling" unicode="&#xa3;" horiz-adv-x="375" 
d="M356 41c-26 -32 -54 -48 -95 -48c-55 0 -86 27 -133 27c-19 0 -47 -6 -74 -28l-34 48c45 33 72 77 72 115c0 19 -6 36 -15 55h-57v46h33c-14 26 -27 60 -27 92c0 80 64 133 151 133c93 0 162 -53 162 -155h-54c-1 69 -46 103 -110 103c-52 0 -92 -35 -92 -81
c0 -34 15 -61 32 -92h114v-46h-93c7 -14 12 -34 12 -51c0 -31 -14 -74 -44 -99c71 17 112 -13 154 -13c26 0 48 15 72 39z" />
    <glyph glyph-name="yen" unicode="&#xa5;" horiz-adv-x="373" 
d="M383 471l-122 -200h82v-46h-110l-18 -29v-31h128v-46h-128v-119h-58v119h-127v46h127v30l-18 30h-109v46h81l-121 200h64l132 -220l133 220h64z" />
    <glyph glyph-name="onehalf" unicode="&#xbd;" horiz-adv-x="523" 
d="M494 0h-211c-9 89 65 118 105 140c31 17 55 34 55 66c0 23 -18 42 -51 42c-54 0 -58 -44 -56 -71h-45c-6 41 6 114 101 114c60 0 99 -32 99 -82s-28 -79 -70 -101c-33 -19 -75 -40 -83 -66h156v-42zM432 481l-349 -491h-49l348 491h50zM141 195h-45v208h-66v36
c50 0 67 7 67 31v11h44v-286z" />
    <glyph glyph-name="onequarter" unicode="&#xbc;" horiz-adv-x="523" 
d="M491 65h-44v-65h-46v65h-131v36l136 185h41v-180h44v-41zM460 481l-349 -491h-49l348 491h50zM153 195h-45v208h-66v36c50 0 67 7 67 31v11h44v-286zM401 106v98l-71 -98h71z" />
    <glyph glyph-name="threequarters" unicode="&#xbe;" horiz-adv-x="523" 
d="M501 65h-44v-65h-46v65h-131v36l136 185h41v-180h44v-41zM490 481l-349 -491h-49l348 491h50zM236 276c0 -53 -41 -90 -105 -90c-62 0 -114 31 -111 107h45c-2 -46 29 -64 66 -64c30 0 58 18 58 46c0 32 -24 49 -74 47v41c46 -4 68 11 68 38c0 22 -19 37 -51 37
c-40 0 -61 -22 -60 -60h-46c-3 60 32 103 106 103c60 0 99 -32 99 -79c0 -25 -15 -48 -43 -59c34 -12 48 -39 48 -67zM411 106v98l-71 -98h71z" />
    <glyph glyph-name="maieknonu" 
 />
    </font>
</defs>
</svg>
